<svg width="0" height="0" class="hidden">
  <symbol xmlns="http://www.w3.org/2000/svg" viewBox="0 0 384 512" id="html5" fill="currentcolor">
    <path d="M0 32l34.9 395.8L191.5 480l157.6-52.2L384 32H0zm308.2 127.9H124.4l4.1 49.4h175.6l-13.6 148.4-97.9 27v.3h-1.1l-98.7-27.3-6-75.8h47.7L138 320l53.5 14.5 53.7-14.5 6-62.2H84.3L71.5 112.2h241.1l-4.4 47.7z"></path>
  </symbol>
  <symbol xmlnsDc="http://purl.org/dc/elements/1.1/" xmlnsCc="http://creativecommons.org/ns#" xmlnsRdf="http://www.w3.org/1999/02/22-rdf-syntax-ns#" xmlnsSvg="http://www.w3.org/2000/svg" xmlns="http://www.w3.org/2000/svg" xmlns:xlink="http://www.w3.org/1999/xlink" version="1.1" viewBox="0 0 128 128" id="blender-svgrepo-com" fill="currentcolor">
    <title>Blender Icon</title>
    <desc>This is shape (source) for Clarity vector icon theme for gtk</desc>
    <metadata>
      <rdf:RDF>
        <cc:Work rdfAbout="">
          <dc:title>Blender Icon</dc:title>
          <dc:description>This is shape (source) for Clarity vector icon theme for gtk</dc:description>
          <dc:creator>
            <cc:Agent>
              <dc:title>Jakub Jankiewicz</dc:title>
            </cc:Agent>
          </dc:creator>
          <dc:rights>
            <cc:Agent>
              <dc:title>Jakub Jankiewicz</dc:title>
            </cc:Agent>
          </dc:rights>
          <dc:date>2010</dc:date>
          <dc:format>image/svg+xml</dc:format>
          <dc:type rdfResource="http://purl.org/dc/dcmitype/StillImage"></dc:type>
          <cc:license rdfResource="http://creativecommons.org/licenses/by-sa/3.0/"></cc:license>
        </cc:Work>
      </rdf:RDF>
    </metadata>
    <path d="m 66.486416,14.174396 a 7.0007,7.0007 0 0 0 -3.84375,12.65625 l 8.15625,6.125 c -3.262107,0.781693 -6.374385,1.959218 -9.28125,3.46875 l -33.90625,0 a 8.0008,8.0008 0 1 0 0,16 l 17.21875,0 c -0.695024,1.209627 -1.335118,2.466807 -1.90625,3.75 l -33.3124999,26.625 a 8.0039053,8.0039053 0 1 0 9.9999999,12.5 l 20.25,-16.1875 c 3.03277,19.650236 20.031816,34.718754 40.53125,34.718754 22.643424,0 41.000004,-18.356582 41.000004,-41.000004 0,-16.409475 -9.66781,-30.573163 -23.593754,-37.125 l -26.75,-20.0625 a 7.0007,7.0007 0 0 0 -4.5625,-1.46875 z m 14.75,32.59375 c 13.444532,0 24.343754,10.123943 24.343754,22.625 0,12.501057 -10.899222,22.65625 -24.343754,22.65625 -13.444532,0 -24.34375,-10.155193 -24.34375,-22.65625 0,-12.501057 10.899218,-22.625 24.34375,-22.625 z m 0,6.84375 c -9.385806,0 -17,7.054097 -17,15.78125 0,8.727153 7.614194,15.8125 17,15.8125 9.385806,0 17,-7.085347 17,-15.8125 0,-8.727153 -7.614194,-15.78125 -17,-15.78125 z"></path>
  </symbol>
  <symbol xmlns="http://www.w3.org/2000/svg" id="sokolchenko" viewBox="234.392 318.387 930.154 198.147" fill="currentcolor">
    <path d="M 391.06,333.39 C 390.55 332.58, 389.88 331.48, 387.83 330.97 C 385.78 330.45, 384.05 330.18, 380.81 330.80 C 377.58 331.42, 375.75 332.22, 371.66 334.05 C 367.56 335.89, 365.24 337.34, 360.33 339.98 C 355.43 342.63, 352.55 343.96, 347.15 347.26 C 341.75 350.56, 338.55 352.52, 333.33 356.50 C 328.11 360.48, 325.42 362.78, 321.04 367.17 C 316.67 371.56, 314.54 373.87, 311.46 378.45 C 308.39 383.02, 307.01 385.50, 305.66 390.04 C 304.32 394.59, 303.99 396.77, 304.73 401.18 C 305.47 405.59, 306.87 407.96, 309.35 412.10 C 311.84 416.24, 313.60 418.01, 317.16 421.88 C 320.72 425.74, 322.76 427.67, 327.14 431.43 C 331.53 435.20, 334.44 436.96, 339.08 440.71 C 343.72 444.47, 346.57 446.50, 350.35 450.21 C 354.12 453.91, 355.98 455.89, 357.96 459.24 C 359.95 462.59, 360.56 463.93, 360.28 466.97 C 360.00 470.01, 359.52 471.20, 356.58 474.44 C 353.64 477.68, 351.22 479.71, 345.60 483.18 C 339.98 486.65, 336.26 488.42, 328.47 491.80 C 320.68 495.19, 315.57 497.08, 306.64 500.11 C 297.72 503.13, 292.34 504.88, 283.84 506.93 C 275.34 508.98, 270.98 509.49, 264.13 510.34 C 257.27 511.20, 254.17 511.26, 249.56 511.21 C 244.96 511.17, 243.43 510.32, 241.11 510.12 C 238.80 509.92, 238.16 510.19, 237.99 510.20 C 237.81 510.21, 239.85 510.40, 240.23 510.17 C 240.61 509.94, 240.46 509.00, 239.90 509.06 C 239.33 509.11, 237.25 509.69, 237.40 510.46 C 237.55 511.22, 238.21 512.27, 240.65 512.87 C 243.09 513.48, 244.85 513.63, 249.59 513.48 C 254.33 513.32, 257.44 513.10, 264.36 512.09 C 271.29 511.09, 275.66 510.56, 284.21 508.47 C 292.77 506.37, 298.16 504.61, 307.15 501.61 C 316.14 498.60, 321.26 496.76, 329.17 493.44 C 337.08 490.12, 340.85 488.47, 346.70 485.00 C 352.56 481.54, 355.18 479.69, 358.44 476.13 C 361.69 472.58, 362.60 470.87, 362.97 467.23 C 363.33 463.58, 362.44 461.65, 360.26 457.89 C 358.09 454.13, 356.02 452.23, 352.08 448.43 C 348.14 444.63, 345.24 442.64, 340.56 438.88 C 335.89 435.12, 333.01 433.37, 328.70 429.63 C 324.40 425.89, 322.46 423.94, 319.04 420.16 C 315.63 416.38, 313.97 414.62, 311.62 410.73 C 309.28 406.85, 308.03 404.73, 307.31 400.73 C 306.58 396.73, 306.81 394.93, 308.02 390.73 C 309.23 386.53, 310.45 384.12, 313.36 379.71 C 316.27 375.30, 318.31 372.98, 322.57 368.68 C 326.82 364.38, 329.47 362.10, 334.63 358.21 C 339.78 354.32, 342.95 352.41, 348.33 349.24 C 353.72 346.07, 356.64 344.77, 361.56 342.37 C 366.48 339.97, 368.92 338.66, 372.93 337.24 C 376.95 335.83, 378.74 335.78, 381.62 335.30 C 384.50 334.82, 385.60 334.90, 387.35 334.84 C 389.10 334.79, 389.64 335.32, 390.38 335.03 C 391.12 334.74, 391.57 334.21, 391.06 333.39"></path>
    <path d="M 431.69,448.61 C 432.30 447.82, 432.72 446.28, 432.37 444.73 C 432.02 443.19, 431.67 441.84, 429.95 440.88 C 428.22 439.91, 426.82 438.99, 423.74 439.91 C 420.66 440.82, 418.48 442.57, 414.53 445.45 C 410.59 448.34, 408.39 450.31, 404.02 454.34 C 399.65 458.37, 396.71 461.07, 392.68 465.58 C 388.64 470.10, 386.30 472.54, 383.83 476.91 C 381.36 481.28, 380.15 484.02, 380.34 487.43 C 380.52 490.83, 381.77 492.50, 384.76 493.94 C 387.75 495.39, 390.29 495.52, 395.29 494.66 C 400.30 493.80, 403.67 492.43, 409.78 489.65 C 415.89 486.87, 420.01 484.69, 425.85 480.75 C 431.68 476.81, 434.82 474.25, 438.98 469.94 C 443.13 465.62, 444.74 463.03, 446.60 459.19 C 448.47 455.35, 448.82 453.40, 448.30 450.74 C 447.78 448.08, 446.23 447.15, 444.00 445.89 C 441.76 444.62, 439.70 444.28, 437.11 444.43 C 434.53 444.57, 432.69 445.40, 431.09 446.62 C 429.49 447.84, 428.70 449.26, 429.10 450.52 C 429.49 451.77, 430.27 452.93, 433.06 452.90 C 435.85 452.88, 437.93 452.23, 443.04 450.38 C 448.15 448.52, 451.60 447.15, 458.62 443.63 C 465.63 440.11, 469.93 437.63, 478.11 432.77 C 486.28 427.90, 490.87 425.32, 499.49 419.31 C 508.11 413.30, 512.87 409.63, 521.20 402.71 C 529.54 395.79, 533.75 391.89, 541.18 384.70 C 548.61 377.51, 552.26 373.70, 558.35 366.76 C 564.43 359.81, 567.25 356.23, 571.60 349.99 C 575.95 343.76, 578.04 340.38, 580.09 335.58 C 582.14 330.78, 582.72 328.27, 581.83 325.99 C 580.94 323.71, 579.27 322.92, 575.65 324.17 C 572.03 325.41, 569.30 327.25, 563.75 332.20 C 558.20 337.16, 554.54 341.17, 547.90 348.94 C 541.27 356.72, 537.28 361.75, 530.58 371.06 C 523.88 380.37, 520.56 385.79, 514.41 395.50 C 508.27 405.21, 504.87 410.70, 499.88 419.60 C 494.89 428.51, 492.95 432.93, 489.48 440.04 C 486.01 447.15, 484.52 450.30, 482.53 455.16 C 480.53 460.03, 479.48 461.79, 479.51 464.37 C 479.54 466.95, 480.72 467.80, 482.68 468.08 C 484.65 468.36, 486.38 467.68, 489.31 465.78 C 492.25 463.88, 493.90 461.82, 497.38 458.57 C 500.86 455.31, 502.77 453.04, 506.73 449.49 C 510.69 445.94, 513.17 443.78, 517.19 440.83 C 521.20 437.88, 523.44 436.43, 526.82 434.74 C 530.20 433.04, 532.13 432.83, 534.10 432.36 C 536.07 431.89, 536.54 431.73, 536.66 432.37 C 536.78 433.02, 536.28 433.37, 534.70 435.58 C 533.12 437.79, 531.77 439.72, 528.78 443.41 C 525.79 447.11, 523.54 449.75, 519.74 454.05 C 515.95 458.35, 513.52 460.72, 509.81 464.91 C 506.10 469.10, 503.86 471.27, 501.19 475.01 C 498.51 478.74, 497.22 480.50, 496.43 483.58 C 495.63 486.66, 495.77 488.52, 497.21 490.41 C 498.66 492.31, 500.11 493.18, 503.65 493.05 C 507.19 492.93, 509.62 491.71, 514.92 489.80 C 520.21 487.88, 523.44 486.58, 530.11 483.47 C 536.78 480.36, 541.00 478.06, 548.25 474.24 C 555.51 470.43, 559.85 467.79, 566.38 464.40 C 572.92 461.01, 576.03 459.29, 580.92 457.30 C 585.81 455.32, 588.27 455.02, 590.84 454.45 C 593.40 453.89, 593.68 453.54, 593.73 454.49 C 593.77 455.43, 592.62 456.51, 591.08 459.18 C 589.53 461.86, 588.04 464.35, 586.00 467.86 C 583.96 471.37, 581.98 473.40, 580.89 476.75 C 579.80 480.10, 579.50 482.25, 580.54 484.61 C 581.59 486.98, 582.90 488.35, 586.11 488.57 C 589.32 488.78, 591.64 487.94, 596.60 485.68 C 601.55 483.43, 604.94 481.59, 610.88 477.31 C 616.82 473.02, 620.60 469.58, 626.31 464.25 C 632.02 458.91, 635.33 455.50, 639.43 450.64 C 643.52 445.79, 645.37 443.67, 646.79 439.96 C 648.20 436.26, 648.47 433.97, 646.50 432.10 C 644.52 430.23, 641.82 429.98, 636.92 430.60 C 632.01 431.22, 628.55 432.57, 621.97 435.20 C 615.39 437.84, 610.47 440.43, 604.02 443.77 C 597.57 447.12, 594.03 449.14, 589.72 451.94 C 585.41 454.73, 584.08 455.97, 582.46 457.75 C 580.84 459.53, 581.35 460.03, 581.63 460.85 C 581.92 461.67, 583.39 461.86, 583.90 461.86 C 584.42 461.85, 584.50 461.08, 584.21 460.84 C 583.91 460.59, 582.43 460.87, 582.44 460.64 C 582.45 460.41, 582.51 460.99, 584.25 459.68 C 585.98 458.37, 586.95 456.84, 591.12 454.06 C 595.29 451.29, 598.74 449.15, 605.09 445.83 C 611.43 442.50, 616.42 439.98, 622.86 437.43 C 629.30 434.89, 632.84 433.86, 637.28 433.11 C 641.73 432.36, 643.63 432.50, 645.09 433.68 C 646.55 434.87, 646.04 435.92, 644.58 439.03 C 643.11 442.15, 641.71 444.52, 637.77 449.26 C 633.84 454.00, 630.55 457.50, 624.91 462.74 C 619.27 467.98, 615.45 471.36, 609.57 475.45 C 603.69 479.54, 600.18 481.21, 595.50 483.17 C 590.82 485.13, 588.65 485.14, 586.17 485.25 C 583.69 485.36, 583.36 485.11, 583.09 483.72 C 582.81 482.33, 583.47 481.05, 584.80 478.31 C 586.14 475.57, 587.79 473.51, 589.76 470.01 C 591.73 466.51, 593.51 464.02, 594.64 460.80 C 595.77 457.59, 596.24 455.77, 595.40 453.95 C 594.56 452.13, 593.50 451.44, 590.43 451.70 C 587.36 451.96, 585.03 453.05, 580.04 455.25 C 575.06 457.45, 572.03 459.25, 565.50 462.71 C 558.97 466.17, 554.64 468.81, 547.38 472.57 C 540.12 476.32, 535.89 478.56, 529.22 481.50 C 522.55 484.43, 519.20 485.59, 514.04 487.23 C 508.88 488.88, 506.40 489.38, 503.41 489.74 C 500.42 490.09, 499.84 490.05, 499.08 489.01 C 498.32 487.97, 498.71 487.01, 499.60 484.54 C 500.48 482.06, 501.07 480.20, 503.50 476.62 C 505.93 473.04, 508.10 470.78, 511.77 466.65 C 515.44 462.51, 517.92 460.16, 521.84 455.95 C 525.76 451.75, 528.12 449.27, 531.36 445.60 C 534.61 441.93, 536.67 440.38, 538.07 437.59 C 539.47 434.80, 539.25 433.31, 538.38 431.64 C 537.52 429.97, 536.34 429.20, 533.74 429.25 C 531.14 429.30, 529.03 430.03, 525.38 431.90 C 521.74 433.76, 519.63 435.50, 515.52 438.58 C 511.40 441.66, 508.91 443.82, 504.82 447.31 C 500.74 450.80, 498.63 452.95, 495.09 456.03 C 491.55 459.12, 489.60 460.70, 487.11 462.73 C 484.62 464.77, 483.70 465.84, 482.64 466.20 C 481.57 466.56, 481.43 466.59, 481.78 464.53 C 482.13 462.46, 482.57 460.66, 484.38 455.90 C 486.20 451.13, 487.52 447.82, 490.84 440.69 C 494.16 433.56, 496.08 429.14, 501.00 420.23 C 505.92 411.32, 509.32 405.83, 515.45 396.15 C 521.58 386.47, 524.91 381.06, 531.64 371.83 C 538.38 362.60, 542.44 357.62, 549.12 350.00 C 555.81 342.38, 559.61 338.46, 565.09 333.73 C 570.57 329.00, 573.54 327.81, 576.54 326.37 C 579.55 324.93, 579.79 324.84, 580.11 326.52 C 580.44 328.19, 580.14 330.24, 578.17 334.75 C 576.20 339.26, 574.43 342.85, 570.26 349.07 C 566.09 355.29, 563.31 358.91, 557.31 365.85 C 551.32 372.79, 547.68 376.60, 540.29 383.78 C 532.91 390.95, 528.71 394.85, 520.39 401.73 C 512.08 408.62, 507.34 412.26, 498.72 418.20 C 490.10 424.13, 485.51 426.69, 477.31 431.40 C 469.11 436.12, 464.75 438.53, 457.72 441.77 C 450.69 445.01, 447.15 446.16, 442.14 447.62 C 437.13 449.08, 435.08 448.55, 432.67 449.06 C 430.26 449.56, 430.06 449.87, 430.09 450.15 C 430.13 450.43, 431.34 450.67, 432.84 450.47 C 434.35 450.27, 435.64 449.49, 437.61 449.16 C 439.58 448.83, 441.11 448.41, 442.71 448.83 C 444.32 449.24, 445.34 449.38, 445.64 451.23 C 445.94 453.07, 445.89 454.61, 444.22 458.04 C 442.56 461.46, 441.25 464.19, 437.33 468.37 C 433.41 472.55, 430.32 475.10, 424.61 478.92 C 418.90 482.73, 414.75 484.81, 408.79 487.43 C 402.84 490.05, 399.41 491.23, 394.84 492.00 C 390.27 492.78, 388.27 492.24, 385.94 491.31 C 383.61 490.38, 383.14 489.98, 383.18 487.36 C 383.23 484.74, 383.88 482.24, 386.15 478.22 C 388.43 474.20, 390.60 471.62, 394.54 467.26 C 398.48 462.89, 401.47 460.19, 405.85 456.39 C 410.23 452.58, 412.56 450.68, 416.43 448.25 C 420.30 445.82, 422.77 445.17, 425.19 444.23 C 427.62 443.30, 427.91 443.33, 428.56 443.58 C 429.21 443.84, 428.29 444.48, 428.44 445.50 C 428.59 446.52, 428.66 448.05, 429.31 448.68 C 429.96 449.30, 431.08 449.40, 431.69 448.61"></path>
    <path d="M 706.30,358.88 C 706.94 358.12, 706.96 356.81, 707.41 355.12 C 707.86 353.43, 708.06 352.39, 708.53 350.43 C 709.00 348.48, 709.16 347.24, 709.75 345.33 C 710.33 343.42, 710.48 342.79, 711.44 340.88 C 712.39 338.97, 713.50 337.86, 714.53 335.77 C 715.56 333.68, 715.94 332.27, 716.60 330.42 C 717.27 328.58, 717.53 328.02, 717.85 326.54 C 718.16 325.05, 718.55 324.03, 718.17 323.00 C 717.80 321.98, 717.10 321.28, 715.96 321.40 C 714.83 321.51, 713.99 321.74, 712.52 323.59 C 711.04 325.44, 710.49 326.97, 708.61 330.65 C 706.73 334.34, 705.73 336.75, 703.10 342.01 C 700.47 347.26, 699.04 350.26, 695.46 356.93 C 691.88 363.59, 689.32 367.47, 685.18 375.33 C 681.05 383.19, 678.79 387.58, 674.80 396.21 C 670.81 404.84, 668.64 409.67, 665.24 418.48 C 661.84 427.29, 660.11 431.97, 657.81 440.27 C 655.51 448.57, 654.72 452.76, 653.73 459.97 C 652.74 467.17, 652.38 470.56, 652.86 476.30 C 653.33 482.04, 653.66 484.75, 656.11 488.67 C 658.56 492.59, 660.58 494.33, 665.09 495.90 C 669.61 497.47, 672.85 497.40, 678.69 496.52 C 684.52 495.63, 687.83 494.41, 694.28 491.48 C 700.74 488.55, 704.45 486.04, 710.95 481.87 C 717.45 477.70, 721.56 475.08, 726.79 470.63 C 732.03 466.18, 734.37 463.34, 737.12 459.61 C 739.87 455.88, 740.25 454.27, 740.54 451.99 C 740.83 449.70, 740.38 449.17, 738.57 448.18 C 736.76 447.18, 734.61 446.40, 731.47 446.99 C 728.34 447.58, 726.40 448.81, 722.90 451.14 C 719.39 453.47, 717.51 455.47, 713.96 458.64 C 710.42 461.82, 708.23 463.52, 705.17 467.00 C 702.10 470.48, 700.42 472.64, 698.63 476.03 C 696.85 479.42, 696.44 481.11, 696.26 483.94 C 696.07 486.77, 696.39 488.07, 697.69 490.18 C 698.98 492.29, 699.98 493.69, 702.73 494.48 C 705.48 495.27, 707.73 495.08, 711.46 494.11 C 715.19 493.14, 717.09 492.07, 721.37 489.64 C 725.64 487.21, 728.06 485.60, 732.83 481.95 C 737.61 478.30, 740.21 476.12, 745.24 471.39 C 750.28 466.67, 752.58 463.90, 758.00 458.32 C 763.43 452.75, 766.57 449.73, 772.37 443.52 C 778.17 437.32, 781.34 433.86, 786.99 427.31 C 792.64 420.75, 795.44 417.10, 800.62 410.75 C 805.79 404.40, 808.69 401.24, 812.86 395.56 C 817.04 389.89, 818.43 386.93, 821.50 382.38 C 824.56 377.84, 826.39 376.15, 828.19 372.85 C 829.98 369.55, 830.71 367.86, 830.46 365.88 C 830.20 363.91, 829.16 362.64, 826.91 362.97 C 824.66 363.29, 822.87 364.46, 819.21 367.51 C 815.55 370.56, 813.22 373.17, 808.61 378.21 C 803.99 383.24, 800.93 386.45, 796.14 392.71 C 791.35 398.97, 788.80 402.92, 784.66 409.50 C 780.52 416.08, 778.70 419.49, 775.45 425.58 C 772.20 431.68, 770.43 434.61, 768.41 439.99 C 766.39 445.37, 765.87 448.13, 765.32 452.48 C 764.78 456.83, 764.54 458.69, 765.69 461.72 C 766.83 464.76, 768.01 466.51, 771.05 467.65 C 774.09 468.79, 776.52 468.16, 780.90 467.43 C 785.28 466.71, 787.76 465.65, 792.95 464.02 C 798.15 462.39, 801.80 460.82, 806.86 459.29 C 811.91 457.77, 814.57 457.01, 818.22 456.40 C 821.87 455.80, 823.05 455.71, 825.10 456.27 C 827.16 456.82, 827.34 457.72, 828.50 459.17 C 829.66 460.62, 829.92 461.76, 830.90 463.51 C 831.89 465.27, 832.26 466.19, 833.43 467.95 C 834.59 469.71, 834.80 470.81, 836.74 472.31 C 838.68 473.82, 840.22 474.88, 843.12 475.47 C 846.02 476.06, 847.90 475.88, 851.23 475.26 C 854.57 474.64, 856.44 474.09, 859.81 472.37 C 863.17 470.66, 864.83 469.30, 868.05 466.69 C 871.28 464.08, 872.87 462.45, 875.93 459.33 C 878.99 456.21, 880.48 454.46, 883.34 451.10 C 886.20 447.75, 887.96 445.80, 890.22 442.57 C 892.48 439.35, 893.63 437.85, 894.64 434.97 C 895.66 432.09, 895.68 430.48, 895.29 428.17 C 894.91 425.86, 894.48 424.33, 892.72 423.40 C 890.97 422.47, 889.06 422.40, 886.52 423.52 C 883.98 424.64, 882.46 425.95, 880.01 429.01 C 877.57 432.07, 876.34 434.37, 874.28 438.81 C 872.22 443.26, 870.78 446.29, 869.73 451.21 C 868.68 456.14, 868.43 459.03, 869.05 463.45 C 869.67 467.87, 870.62 470.09, 872.84 473.32 C 875.06 476.54, 876.62 477.83, 880.14 479.59 C 883.66 481.35, 885.80 482.00, 890.43 482.12 C 895.07 482.24, 898.07 481.56, 903.31 480.18 C 908.55 478.81, 910.93 477.62, 916.63 475.24 C 922.33 472.87, 925.56 471.18, 931.80 468.31 C 938.04 465.44, 942.02 463.81, 947.83 460.89 C 953.65 457.97, 956.66 455.95, 960.87 453.71 C 965.07 451.48, 967.02 450.66, 968.85 449.71 C 970.69 448.76, 970.75 448.40, 970.04 448.95 C 969.33 449.49, 967.64 450.22, 965.30 452.43 C 962.96 454.64, 961.25 456.84, 958.34 459.99 C 955.43 463.14, 953.34 465.33, 950.76 468.16 C 948.19 470.99, 946.66 472.32, 945.46 474.14 C 944.25 475.96, 944.22 476.94, 944.74 477.26 C 945.26 477.58, 946.08 477.27, 948.05 475.75 C 950.03 474.24, 951.19 472.65, 954.61 469.70 C 958.04 466.76, 960.66 464.33, 965.17 461.02 C 969.68 457.71, 972.51 455.55, 977.17 453.14 C 981.83 450.73, 984.83 449.97, 988.48 448.98 C 992.12 447.99, 993.70 447.92, 995.39 448.19 C 997.08 448.45, 996.97 448.60, 996.91 450.32 C 996.85 452.04, 995.77 453.75, 995.09 456.80 C 994.41 459.84, 994.13 462.20, 993.52 465.55 C 992.91 468.90, 992.08 470.84, 992.05 473.53 C 992.01 476.23, 992.65 477.62, 993.34 479.00 C 994.02 480.38, 994.71 480.28, 995.45 480.45 C 996.19 480.62, 996.81 480.19, 997.03 479.87 C 997.26 479.54, 996.82 478.94, 996.58 478.82 C 996.34 478.70, 995.90 479.33, 995.82 479.25 C 995.74 479.18, 995.98 479.50, 996.18 478.45 C 996.39 477.39, 996.44 476.38, 996.86 473.97 C 997.28 471.55, 997.76 469.66, 998.29 466.37 C 998.82 463.07, 999.21 460.78, 999.52 457.48 C 999.83 454.18, 1000.52 452.24, 999.83 449.87 C 999.13 447.49, 998.46 446.39, 996.04 445.62 C 993.61 444.85, 991.74 445.02, 987.71 446.03 C 983.68 447.04, 980.74 448.15, 975.89 450.66 C 971.03 453.17, 968.15 455.33, 963.43 458.57 C 958.71 461.82, 955.91 463.99, 952.28 466.89 C 948.65 469.78, 946.87 470.96, 945.30 473.03 C 943.73 475.11, 943.90 476.55, 944.42 477.26 C 944.94 477.97, 946.02 477.84, 947.90 476.59 C 949.77 475.35, 951.08 473.78, 953.79 471.03 C 956.50 468.29, 958.53 466.03, 961.45 462.85 C 964.37 459.67, 966.37 457.84, 968.37 455.15 C 970.37 452.45, 971.51 450.95, 971.45 449.38 C 971.39 447.82, 970.45 446.91, 968.08 447.31 C 965.71 447.71, 963.87 449.06, 959.61 451.38 C 955.36 453.70, 952.56 455.91, 946.82 458.91 C 941.08 461.92, 937.12 463.54, 930.91 466.39 C 924.70 469.23, 921.42 470.89, 915.77 473.15 C 910.13 475.41, 907.73 476.46, 902.68 477.68 C 897.63 478.90, 894.76 479.39, 890.52 479.23 C 886.29 479.07, 884.53 478.41, 881.49 476.89 C 878.45 475.36, 877.22 474.38, 875.32 471.61 C 873.42 468.85, 872.51 467.00, 871.98 463.05 C 871.45 459.10, 871.62 456.42, 872.68 451.87 C 873.74 447.31, 875.20 444.34, 877.29 440.28 C 879.37 436.21, 880.85 434.17, 883.09 431.54 C 885.33 428.92, 886.77 428.33, 888.48 427.16 C 890.19 425.98, 890.93 425.44, 891.64 425.68 C 892.34 425.93, 892.15 426.78, 892.00 428.37 C 891.85 429.95, 891.81 431.15, 890.89 433.61 C 889.96 436.07, 889.38 437.57, 887.38 440.65 C 885.38 443.74, 883.64 445.76, 880.90 449.05 C 878.16 452.33, 876.66 454.10, 873.67 457.09 C 870.68 460.08, 869.04 461.63, 865.94 464.00 C 862.83 466.37, 861.24 467.56, 858.16 468.93 C 855.08 470.31, 853.36 470.52, 850.53 470.89 C 847.70 471.27, 846.25 471.20, 844.00 470.82 C 841.75 470.43, 840.69 469.99, 839.28 468.96 C 837.88 467.93, 837.94 467.20, 836.99 465.66 C 836.03 464.13, 835.71 463.04, 834.51 461.28 C 833.31 459.51, 832.71 458.43, 830.99 456.83 C 829.26 455.22, 828.56 453.95, 825.90 453.26 C 823.25 452.56, 821.69 452.69, 817.71 453.35 C 813.74 454.00, 811.14 454.96, 806.02 456.53 C 800.89 458.10, 797.21 459.65, 792.09 461.22 C 786.96 462.78, 784.38 463.68, 780.38 464.35 C 776.39 465.02, 774.49 465.31, 772.12 464.57 C 769.75 463.84, 769.39 463.03, 768.54 460.67 C 767.69 458.31, 767.52 456.75, 767.89 452.76 C 768.26 448.77, 768.56 445.98, 770.40 440.72 C 772.24 435.45, 773.93 432.50, 777.09 426.45 C 780.25 420.40, 782.07 416.97, 786.19 410.47 C 790.32 403.96, 792.86 400.04, 797.70 393.92 C 802.54 387.81, 805.69 384.70, 810.39 379.89 C 815.09 375.08, 817.74 372.79, 821.19 369.88 C 824.65 366.97, 826.20 366.17, 827.65 365.35 C 829.10 364.53, 828.82 364.57, 828.43 365.80 C 828.04 367.02, 827.44 368.38, 825.69 371.47 C 823.95 374.55, 822.56 376.61, 819.70 381.22 C 816.85 385.83, 815.49 388.82, 811.42 394.52 C 807.35 400.22, 804.48 403.38, 799.36 409.73 C 794.23 416.08, 791.43 419.74, 785.80 426.28 C 780.16 432.81, 776.99 436.24, 771.18 442.40 C 765.37 448.57, 762.20 451.58, 756.74 457.08 C 751.28 462.58, 748.94 465.32, 743.87 469.90 C 738.80 474.49, 736.18 476.59, 731.39 480.01 C 726.61 483.42, 724.11 484.90, 719.95 486.99 C 715.78 489.08, 713.82 489.70, 710.56 490.45 C 707.30 491.19, 705.69 491.09, 703.64 490.71 C 701.60 490.34, 701.11 489.86, 700.33 488.57 C 699.56 487.28, 699.51 486.45, 699.77 484.26 C 700.04 482.07, 700.10 480.64, 701.66 477.61 C 703.22 474.57, 704.66 472.40, 707.55 469.10 C 710.44 465.80, 712.62 464.04, 716.10 461.11 C 719.59 458.18, 721.70 456.41, 724.98 454.43 C 728.27 452.44, 729.95 452.01, 732.52 451.18 C 735.09 450.35, 736.65 450.21, 737.82 450.28 C 738.99 450.35, 738.92 449.95, 738.38 451.52 C 737.83 453.09, 737.69 454.61, 735.10 458.12 C 732.51 461.63, 730.47 464.63, 725.43 469.05 C 720.39 473.48, 716.30 476.12, 709.90 480.23 C 703.50 484.34, 699.75 486.79, 693.44 489.61 C 687.13 492.42, 683.87 493.48, 678.35 494.29 C 672.83 495.11, 669.92 495.04, 665.85 493.68 C 661.78 492.32, 660.20 491.00, 657.99 487.49 C 655.78 483.98, 655.32 481.59, 654.80 476.13 C 654.28 470.67, 654.50 467.28, 655.40 460.18 C 656.29 453.09, 657.03 448.90, 659.26 440.67 C 661.50 432.43, 663.21 427.76, 666.58 419.00 C 669.96 410.23, 672.13 405.42, 676.14 396.84 C 680.15 388.26, 682.42 383.89, 686.63 376.10 C 690.84 368.31, 693.43 364.45, 697.18 357.88 C 700.93 351.31, 702.43 348.30, 705.38 343.24 C 708.34 338.18, 709.76 336.00, 711.96 332.59 C 714.17 329.17, 715.36 328.12, 716.41 326.18 C 717.46 324.23, 717.37 323.59, 717.23 322.85 C 717.08 322.12, 716.36 322.05, 715.68 322.50 C 715.01 322.95, 714.51 323.86, 713.85 325.10 C 713.18 326.34, 713.13 327.02, 712.36 328.70 C 711.59 330.38, 711.01 331.47, 709.99 333.51 C 708.97 335.55, 708.19 336.82, 707.25 338.88 C 706.31 340.95, 706.03 341.76, 705.28 343.85 C 704.54 345.93, 703.98 347.12, 703.51 349.30 C 703.05 351.48, 702.81 352.81, 702.95 354.74 C 703.09 356.66, 703.54 358.09, 704.21 358.92 C 704.88 359.75, 705.66 359.64, 706.30 358.88"></path>
    <path d="M 1081.41,368.88 C 1081.51 368.46, 1081.47 366.92, 1080.44 366.78 C 1079.41 366.65, 1078.22 366.25, 1076.24 368.21 C 1074.26 370.16, 1073.59 372.23, 1070.55 376.56 C 1067.51 380.89, 1065.20 383.83, 1061.05 389.85 C 1056.91 395.87, 1054.12 399.95, 1049.83 406.67 C 1045.54 413.39, 1043.58 417.13, 1039.61 423.46 C 1035.63 429.79, 1033.47 432.69, 1029.98 438.33 C 1026.50 443.97, 1024.84 447.08, 1022.19 451.67 C 1019.54 456.27, 1018.06 458.03, 1016.73 461.30 C 1015.41 464.58, 1014.88 466.27, 1015.56 468.05 C 1016.23 469.82, 1017.65 470.43, 1020.13 470.19 C 1022.61 469.94, 1024.46 468.78, 1027.96 466.82 C 1031.45 464.87, 1033.35 463.30, 1037.59 460.42 C 1041.83 457.53, 1044.58 455.30, 1049.16 452.41 C 1053.74 449.51, 1056.66 448.10, 1060.49 445.92 C 1064.31 443.74, 1066.22 442.95, 1068.29 441.51 C 1070.36 440.07, 1070.94 439.06, 1070.83 438.72 C 1070.73 438.38, 1069.52 438.79, 1067.76 439.83 C 1066.00 440.86, 1064.43 441.71, 1062.03 443.88 C 1059.62 446.06, 1057.97 447.80, 1055.73 450.69 C 1053.48 453.59, 1051.76 455.46, 1050.81 458.34 C 1049.85 461.22, 1050.04 462.53, 1050.94 465.10 C 1051.84 467.68, 1052.63 469.57, 1055.31 471.20 C 1057.98 472.83, 1059.85 473.09, 1064.31 473.27 C 1068.77 473.46, 1071.97 473.11, 1077.61 472.11 C 1083.25 471.12, 1086.25 470.06, 1092.52 468.30 C 1098.80 466.53, 1102.68 465.52, 1108.98 463.28 C 1115.28 461.03, 1119.06 459.30, 1124.02 457.06 C 1128.99 454.83, 1131.32 453.74, 1133.81 452.09 C 1136.29 450.44, 1137.09 449.28, 1136.45 448.80 C 1135.80 448.32, 1134.00 448.08, 1130.59 449.70 C 1127.18 451.32, 1124.34 453.70, 1119.40 456.91 C 1114.46 460.12, 1110.82 462.17, 1105.91 465.74 C 1101.01 469.32, 1098.03 471.32, 1094.87 474.79 C 1091.72 478.25, 1090.44 480.37, 1090.14 483.06 C 1089.83 485.75, 1090.97 487.35, 1093.34 488.23 C 1095.72 489.11, 1097.69 488.49, 1102.01 487.45 C 1106.32 486.41, 1109.45 485.55, 1114.91 483.02 C 1120.37 480.49, 1123.71 478.40, 1129.31 474.80 C 1134.92 471.20, 1137.93 468.96, 1142.93 465.04 C 1147.94 461.12, 1150.72 458.84, 1154.34 455.19 C 1157.96 451.54, 1159.94 449.78, 1161.03 446.77 C 1162.12 443.76, 1161.38 441.66, 1159.78 440.12 C 1158.19 438.58, 1154.47 438.89, 1153.06 439.07 C 1151.66 439.25, 1151.73 440.46, 1152.77 441.01 C 1153.81 441.55, 1157.14 440.89, 1158.24 441.81 C 1159.34 442.73, 1159.39 443.28, 1158.25 445.61 C 1157.11 447.93, 1155.87 449.90, 1152.53 453.43 C 1149.19 456.97, 1146.43 459.40, 1141.54 463.28 C 1136.66 467.16, 1133.63 469.40, 1128.08 472.85 C 1122.53 476.30, 1119.17 478.22, 1113.80 480.53 C 1108.43 482.84, 1105.20 483.35, 1101.24 484.40 C 1097.27 485.46, 1095.68 485.99, 1093.96 485.82 C 1092.24 485.66, 1092.06 485.39, 1092.66 483.57 C 1093.26 481.75, 1093.98 479.84, 1096.95 476.72 C 1099.93 473.61, 1102.73 471.45, 1107.54 468.00 C 1112.36 464.55, 1116.11 462.57, 1121.04 459.48 C 1125.97 456.38, 1129.09 454.57, 1132.18 452.52 C 1135.28 450.46, 1136.48 449.81, 1136.53 449.19 C 1136.57 448.58, 1135.11 448.33, 1132.40 449.45 C 1129.68 450.56, 1127.78 452.42, 1122.95 454.77 C 1118.11 457.12, 1114.43 458.93, 1108.23 461.19 C 1102.02 463.46, 1098.13 464.43, 1091.92 466.09 C 1085.71 467.74, 1082.67 468.70, 1077.19 469.47 C 1071.71 470.25, 1068.49 470.27, 1064.50 469.96 C 1060.51 469.65, 1059.33 469.11, 1057.25 467.93 C 1055.18 466.74, 1054.63 465.63, 1054.13 464.03 C 1053.62 462.44, 1053.66 462.00, 1054.72 459.95 C 1055.79 457.90, 1057.30 456.25, 1059.47 453.77 C 1061.64 451.28, 1063.39 449.81, 1065.57 447.53 C 1067.74 445.26, 1069.22 444.26, 1070.34 442.40 C 1071.47 440.54, 1071.91 439.00, 1071.18 438.22 C 1070.45 437.45, 1069.13 437.52, 1066.68 438.52 C 1064.22 439.52, 1062.72 440.95, 1058.91 443.24 C 1055.10 445.53, 1052.24 447.07, 1047.63 449.97 C 1043.01 452.87, 1040.13 455.02, 1035.83 457.74 C 1031.53 460.47, 1029.42 461.71, 1026.13 463.59 C 1022.84 465.47, 1021.14 466.35, 1019.37 467.15 C 1017.61 467.96, 1017.30 468.55, 1017.32 467.62 C 1017.34 466.68, 1018.10 465.46, 1019.48 462.49 C 1020.85 459.52, 1021.77 457.41, 1024.20 452.78 C 1026.62 448.14, 1028.23 445.00, 1031.62 439.32 C 1035.00 433.65, 1037.16 430.74, 1041.13 424.41 C 1045.09 418.09, 1047.08 414.35, 1051.44 407.71 C 1055.80 401.06, 1058.62 397.04, 1062.93 391.19 C 1067.25 385.34, 1069.66 382.44, 1073.03 378.47 C 1076.40 374.51, 1078.19 373.40, 1079.77 371.36 C 1081.36 369.33, 1080.93 368.81, 1080.97 368.30 C 1081.00 367.80, 1079.85 368.73, 1079.94 368.85 C 1080.03 368.96, 1081.31 369.29, 1081.41 368.88"></path>
  </symbol>
  <symbol xmlns="http://www.w3.org/2000/svg" xmlns:xlink="http://www.w3.org/1999/xlink" version="1.1" baseProfile="full" enable-background="new 0 0 76.00 76.00" xml:space="preserve" viewBox="0 0 76 76" id="adobe-photoshop-svgrepo-com">
    <path fill="currentcolor" fill-opacity="1" stroke-width="0.2" stroke-linejoin="round" d="M 21.8953,23.1174C 23.8181,22.7673 26.4837,22.5055 30.1099,22.5055C 34.0428,22.5055 36.9266,23.3355 38.8059,24.9084C 40.5537,26.3507 41.6901,28.6663 41.6901,31.4192C 41.6901,34.2158 40.8164,36.5318 39.1559,38.1051C 37.0148,40.2461 33.6501,41.2512 29.8485,41.2512C 28.8434,41.2512 27.9256,41.2076 27.2262,41.0762L 27.2262,52.1755L 21.8953,52.1755L 21.8953,23.1174 Z M 27.2262,36.8382C 27.882,37.0132 28.7561,37.0564 29.8485,37.0564C 33.8683,37.0564 36.3152,35.0904 36.3152,31.6379C 36.3152,28.3609 34.0428,26.6126 30.3285,26.6126C 28.8434,26.6126 27.7947,26.744 27.2262,26.8753L 27.2262,36.8382 Z M 42.8675,37.1001C 42.8675,33.3421 45.9704,30.4142 50.9084,30.4142C 53.2676,30.4142 55.3219,31.0261 56.5447,31.6816L 55.4964,35.4831C 54.5786,34.9585 52.874,34.2599 50.9957,34.2599C 49.0733,34.2599 48.0242,35.1777 48.0242,36.4877C 48.0242,37.8433 49.0292,38.4983 51.7385,39.4597C 55.5837,40.858 57.3747,42.8245 57.4193,45.9701C 57.4193,49.8154 54.4041,52.6564 48.7665,52.6564C 46.1886,52.6564 43.8725,52.0005 42.3002,51.1268L 43.3484,47.2379C 44.5721,47.9811 46.8882,48.7667 48.811,48.7667C 51.1707,48.7667 52.2185,47.8057 52.2185,46.4079C 52.2185,44.9655 51.3451,44.2223 48.7237,43.3045C 44.5721,41.863 42.8243,39.5902 42.8675,37.1001 Z "></path>
  </symbol>
  <symbol xmlns="http://www.w3.org/2000/svg" xmlns:xlink="http://www.w3.org/1999/xlink" version="1.1" baseProfile="full" enable-background="new 0 0 76.00 76.00" xml:space="preserve" viewBox="0 0 76 76" id="adobe-illustrator-svgrepo-com">
    <path fill="currentcolor" fill-opacity="1" stroke-width="0.2" stroke-linejoin="round" d="M 30.4822,22.8009L 37.3426,22.8009L 46.9122,52.2525L 41.1446,52.2525L 38.4785,43.9062L 29.1276,43.9062L 26.5929,52.2525L 21.0439,52.2525L 30.4822,22.8009 Z M 32.2736,32.5887L 30.0017,39.8432L 37.5616,39.8432L 35.2452,32.5887C 34.6774,30.7977 34.1965,28.7872 33.7601,27.083L 33.6723,27.083C 33.2351,28.7872 32.7982,30.8409 32.2736,32.5887 Z M 48.7023,25.0292C 48.7023,23.3687 49.9255,22.1014 51.717,22.1014C 53.5521,22.1014 54.6885,23.3687 54.7322,25.0292C 54.7322,26.6462 53.5521,27.9135 51.6733,27.9135C 49.8819,27.9135 48.7023,26.6462 48.7023,25.0292 Z M 49.0077,52.2525L 49.0077,30.9723L 54.4267,30.9723L 54.4267,52.2525L 49.0077,52.2525 Z "></path>
  </symbol>
</svg>