<svg width="0" height="0" class="hidden">

  <symbol xmlns="http://www.w3.org/2000/svg" viewBox="0 0 384 512" id="html5" fill="currentcolor">
    <path d="M0 32l34.9 395.8L191.5 480l157.6-52.2L384 32H0zm308.2 127.9H124.4l4.1 49.4h175.6l-13.6 148.4-97.9 27v.3h-1.1l-98.7-27.3-6-75.8h47.7L138 320l53.5 14.5 53.7-14.5 6-62.2H84.3L71.5 112.2h241.1l-4.4 47.7z"></path>
  </symbol>

  <symbol id="octanerender (1)" xmlns="http://www.w3.org/2000/svg" viewBox="0 0 129.77 147.89" fill="currentcolor">
    <defs></defs>
    <path d="M3.91,98.22c10.09,1,19.89.81,29.1-4.27-.26-.37-.56-.7-.89-1-10.75-7.57-18-17.89-22.93-29.88-3.16-7.64-5.93-15.45-8.83-23.19-.14-.36-.22-.75-.36-1.26l13.51-5.24c4.07,9.27,9.18,17.62,18.27,23.14.31-2,.55-3.78.84-5.61,1.6-9.96,5.6-19.38,11.67-27.44,5.68-7.73,12-15,18.07-22.52.22-.28.39-.6.62-.95l11.53,9.24c-6,8.2-10.71,16.8-10.9,27.36,3-1.09,5.71-2.2,8.53-3.12,9.79-3.2,19.86-3.49,30-2.16,8.25,1.1,16.46,2.63,24.69,4,.43.06.85.15,1.26.27l-2.3,14.41c-10.09-1.19-19.87-.81-29.27,4.25l3.89,3c8.3,6.58,14.8,15.15,18.91,24.92,3.79,8.65,6.85,17.65,10.23,26.4.09.31.17.62.22.94l-13.43,5.27c-4.12-9.28-9.24-17.66-18.37-23.19-.15,1.13-.26,2-.36,2.91-1.46,11.66-6.07,22.69-13.34,31.92-5.44,7.15-11.35,14-17,20.94-.19.2-.4.37-.63.53l-11.27-9c5.94-8.15,10.72-16.7,10.85-27.41l-4.71,1.89c-8.04,3.09-16.63,4.49-25.23,4.11-11.58-.38-22.92-2.52-34.48-4.89l2.11-14.37ZM64.76,93.73c10.91.08,19.81-8.7,19.89-19.61s-8.7-19.81-19.61-19.89c-10.91-.08-19.81,8.7-19.89,19.61,0,0,0,0,0,0v.21c.07,10.81,8.8,19.57,19.61,19.67Z"></path>
  </symbol>

  <symbol xmlns="http://www.w3.org/2000/svg" xmlns:xlink="http://www.w3.org/1999/xlink" version="1.1" baseProfile="full" enable-background="new 0 0 76.00 76.00" xml:space="preserve" viewBox="0 0 76 76" id="adobe-photoshop-svgrepo-com">
    <path fill="currentcolor" fill-opacity="1" stroke-width="0.2" stroke-linejoin="round" d="M 21.8953,23.1174C 23.8181,22.7673 26.4837,22.5055 30.1099,22.5055C 34.0428,22.5055 36.9266,23.3355 38.8059,24.9084C 40.5537,26.3507 41.6901,28.6663 41.6901,31.4192C 41.6901,34.2158 40.8164,36.5318 39.1559,38.1051C 37.0148,40.2461 33.6501,41.2512 29.8485,41.2512C 28.8434,41.2512 27.9256,41.2076 27.2262,41.0762L 27.2262,52.1755L 21.8953,52.1755L 21.8953,23.1174 Z M 27.2262,36.8382C 27.882,37.0132 28.7561,37.0564 29.8485,37.0564C 33.8683,37.0564 36.3152,35.0904 36.3152,31.6379C 36.3152,28.3609 34.0428,26.6126 30.3285,26.6126C 28.8434,26.6126 27.7947,26.744 27.2262,26.8753L 27.2262,36.8382 Z M 42.8675,37.1001C 42.8675,33.3421 45.9704,30.4142 50.9084,30.4142C 53.2676,30.4142 55.3219,31.0261 56.5447,31.6816L 55.4964,35.4831C 54.5786,34.9585 52.874,34.2599 50.9957,34.2599C 49.0733,34.2599 48.0242,35.1777 48.0242,36.4877C 48.0242,37.8433 49.0292,38.4983 51.7385,39.4597C 55.5837,40.858 57.3747,42.8245 57.4193,45.9701C 57.4193,49.8154 54.4041,52.6564 48.7665,52.6564C 46.1886,52.6564 43.8725,52.0005 42.3002,51.1268L 43.3484,47.2379C 44.5721,47.9811 46.8882,48.7667 48.811,48.7667C 51.1707,48.7667 52.2185,47.8057 52.2185,46.4079C 52.2185,44.9655 51.3451,44.2223 48.7237,43.3045C 44.5721,41.863 42.8243,39.5902 42.8675,37.1001 Z "></path>
  </symbol>

  <symbol xmlns="http://www.w3.org/2000/svg" xmlns:xlink="http://www.w3.org/1999/xlink" version="1.1" baseProfile="full" enable-background="new 0 0 76.00 76.00" xml:space="preserve" viewBox="0 0 76 76" id="adobe-illustrator-svgrepo-com">
    <path fill="currentcolor" fill-opacity="1" stroke-width="0.2" stroke-linejoin="round" d="M 30.4822,22.8009L 37.3426,22.8009L 46.9122,52.2525L 41.1446,52.2525L 38.4785,43.9062L 29.1276,43.9062L 26.5929,52.2525L 21.0439,52.2525L 30.4822,22.8009 Z M 32.2736,32.5887L 30.0017,39.8432L 37.5616,39.8432L 35.2452,32.5887C 34.6774,30.7977 34.1965,28.7872 33.7601,27.083L 33.6723,27.083C 33.2351,28.7872 32.7982,30.8409 32.2736,32.5887 Z M 48.7023,25.0292C 48.7023,23.3687 49.9255,22.1014 51.717,22.1014C 53.5521,22.1014 54.6885,23.3687 54.7322,25.0292C 54.7322,26.6462 53.5521,27.9135 51.6733,27.9135C 49.8819,27.9135 48.7023,26.6462 48.7023,25.0292 Z M 49.0077,52.2525L 49.0077,30.9723L 54.4267,30.9723L 54.4267,52.2525L 49.0077,52.2525 Z "></path>
  </symbol>

  <symbol xmlns="http://www.w3.org/2000/svg" id="strongman" viewBox="277.143 318.066 1075.364 262.041" fill="currentcolor">
    <path d="M 417.71,325.40 C 417.12 324.22, 416.14 322.83, 413.68 321.99 C 411.21 321.15, 409.28 320.88, 405.38 321.19 C 401.48 321.51, 399.18 321.79, 394.18 323.55 C 389.18 325.31, 386.38 326.69, 380.38 329.99 C 374.37 333.29, 370.72 335.41, 364.17 340.06 C 357.61 344.71, 353.75 347.70, 347.61 353.24 C 341.47 358.78, 338.06 361.89, 333.46 367.77 C 328.86 373.66, 326.71 376.89, 324.60 382.67 C 322.50 388.45, 322.13 391.41, 322.93 396.67 C 323.74 401.93, 325.12 404.46, 328.65 408.95 C 332.18 413.43, 335.10 415.33, 340.58 419.09 C 346.06 422.85, 349.65 424.43, 356.06 427.74 C 362.46 431.05, 366.27 432.46, 372.60 435.65 C 378.92 438.85, 382.56 440.34, 387.68 443.71 C 392.80 447.08, 395.28 448.96, 398.19 452.49 C 401.10 456.02, 402.04 457.62, 402.24 461.36 C 402.44 465.09, 401.99 466.85, 399.19 471.17 C 396.39 475.50, 394.01 478.07, 388.24 482.98 C 382.47 487.90, 378.39 490.67, 370.34 495.74 C 362.30 500.81, 357.16 503.70, 348.03 508.33 C 338.91 512.96, 333.52 515.44, 324.73 518.91 C 315.95 522.37, 311.15 523.92, 304.12 525.64 C 297.08 527.36, 293.60 527.61, 289.54 527.51 C 285.48 527.40, 284.68 527.15, 283.80 525.12 C 282.92 523.09, 283.07 521.75, 285.15 517.35 C 287.24 512.95, 289.22 509.63, 294.23 503.10 C 299.25 496.57, 302.76 492.60, 310.23 484.69 C 317.69 476.78, 322.30 472.21, 331.55 463.55 C 340.81 454.89, 346.16 450.20, 356.50 441.37 C 366.84 432.55, 372.60 428.09, 383.24 419.44 C 393.87 410.79, 399.40 406.30, 409.68 398.14 C 419.97 389.98, 425.21 385.90, 434.66 378.66 C 444.11 371.41, 448.92 367.89, 456.91 361.93 C 464.91 355.96, 468.88 352.83, 474.63 348.83 C 480.38 344.84, 483.15 343.44, 485.64 341.95 C 488.14 340.46, 487.66 339.64, 487.10 341.40 C 486.55 343.15, 485.62 345.30, 482.87 350.72 C 480.13 356.15, 477.79 360.35, 473.39 368.54 C 468.98 376.73, 466.06 382.02, 460.86 391.65 C 455.66 401.29, 452.56 406.99, 447.38 416.73 C 442.20 426.48, 439.40 431.65, 434.95 440.37 C 430.50 449.10, 428.38 453.50, 425.14 460.34 C 421.89 467.19, 420.41 470.12, 418.74 474.58 C 417.06 479.05, 416.45 480.38, 416.75 482.65 C 417.04 484.93, 418.22 485.78, 420.21 485.95 C 422.20 486.13, 423.94 485.57, 426.69 483.53 C 429.43 481.49, 430.78 479.39, 433.94 475.75 C 437.10 472.10, 438.86 469.67, 442.51 465.29 C 446.15 460.91, 448.37 458.30, 452.18 453.85 C 455.98 449.39, 458.03 447.06, 461.53 443.01 C 465.02 438.96, 466.60 436.77, 469.64 433.60 C 472.67 430.43, 474.22 429.13, 476.70 427.15 C 479.18 425.17, 480.28 424.55, 482.03 423.70 C 483.78 422.84, 484.36 422.56, 485.47 422.87 C 486.58 423.18, 486.85 423.83, 487.57 425.24 C 488.29 426.65, 488.67 427.39, 489.06 429.94 C 489.44 432.49, 489.75 434.16, 489.49 438.00 C 489.23 441.83, 488.73 444.47, 487.74 449.10 C 486.75 453.73, 486.05 456.51, 484.53 461.16 C 483.02 465.81, 481.79 468.36, 480.15 472.36 C 478.51 476.35, 477.01 478.25, 476.34 481.16 C 475.67 484.06, 475.95 485.47, 476.81 486.88 C 477.67 488.29, 478.79 488.80, 480.65 488.20 C 482.51 487.59, 483.75 486.58, 486.12 483.85 C 488.48 481.11, 489.55 478.73, 492.47 474.52 C 495.40 470.31, 497.21 467.48, 500.74 462.81 C 504.26 458.14, 506.36 455.44, 510.09 451.17 C 513.82 446.91, 515.79 444.85, 519.39 441.47 C 522.99 438.10, 524.77 436.53, 528.10 434.29 C 531.43 432.06, 532.93 431.47, 536.04 430.30 C 539.16 429.14, 540.56 428.98, 543.68 428.45 C 546.80 427.92, 548.25 427.83, 551.64 427.65 C 555.04 427.46, 556.83 427.65, 560.67 427.51 C 564.51 427.37, 566.77 427.32, 570.84 426.94 C 574.91 426.57, 577.10 426.18, 581.03 425.63 C 584.96 425.09, 587.02 424.73, 590.51 424.23 C 594.00 423.73, 595.98 423.88, 598.48 423.13 C 600.98 422.37, 602.13 421.54, 603.00 420.44 C 603.87 419.34, 603.91 417.99, 602.82 417.63 C 601.74 417.27, 600.36 417.02, 597.57 418.64 C 594.79 420.26, 592.93 422.17, 588.89 425.75 C 584.85 429.32, 582.07 431.83, 577.38 436.53 C 572.70 441.23, 569.69 444.21, 565.47 449.25 C 561.24 454.30, 559.00 457.09, 556.26 461.75 C 553.53 466.42, 552.40 468.70, 551.78 472.57 C 551.17 476.44, 551.44 478.52, 553.20 481.11 C 554.95 483.70, 556.99 484.88, 560.55 485.51 C 564.11 486.15, 566.57 485.61, 571.01 484.28 C 575.45 482.95, 578.05 481.66, 582.77 478.86 C 587.49 476.05, 590.14 474.13, 594.59 470.27 C 599.04 466.40, 601.32 464.02, 605.00 459.52 C 608.68 455.02, 610.51 452.32, 612.98 447.76 C 615.46 443.19, 616.49 440.88, 617.38 436.69 C 618.26 432.49, 618.12 430.28, 617.42 426.78 C 616.72 423.28, 615.56 421.51, 613.88 419.20 C 612.21 416.90, 610.72 415.99, 609.05 415.26 C 607.38 414.53, 606.04 414.93, 605.52 415.55 C 605.00 416.18, 604.87 417.60, 606.44 418.39 C 608.01 419.17, 609.68 419.56, 613.38 419.48 C 617.08 419.39, 619.64 418.79, 624.96 417.97 C 630.28 417.14, 633.57 416.38, 639.97 415.36 C 646.37 414.35, 650.34 413.65, 656.96 412.88 C 663.57 412.12, 667.15 411.69, 673.03 411.55 C 678.92 411.41, 681.88 411.38, 686.36 412.20 C 690.84 413.02, 693.03 413.89, 695.44 415.66 C 697.85 417.42, 698.18 418.23, 698.42 421.04 C 698.67 423.86, 698.13 425.76, 696.65 429.73 C 695.18 433.70, 693.79 436.39, 691.05 440.90 C 688.31 445.42, 686.07 448.17, 682.96 452.31 C 679.84 456.44, 677.29 458.39, 675.48 461.56 C 673.66 464.74, 673.28 466.57, 673.88 468.17 C 674.47 469.76, 675.89 470.47, 678.46 469.54 C 681.03 468.60, 682.56 466.73, 686.72 463.50 C 690.88 460.27, 693.74 457.58, 699.26 453.39 C 704.78 449.20, 708.17 446.63, 714.31 442.55 C 720.46 438.48, 724.14 436.10, 729.99 433.02 C 735.85 429.94, 739.14 428.63, 743.58 427.15 C 748.03 425.68, 749.96 425.66, 752.21 425.65 C 754.46 425.64, 754.51 425.72, 754.83 427.09 C 755.15 428.46, 754.57 429.67, 753.81 432.50 C 753.05 435.32, 752.26 437.51, 751.03 441.22 C 749.80 444.93, 748.65 447.25, 747.68 451.07 C 746.71 454.88, 745.88 456.98, 746.20 460.31 C 746.52 463.63, 747.11 465.64, 749.28 467.70 C 751.46 469.76, 753.32 470.52, 757.07 470.62 C 760.82 470.71, 763.01 469.98, 768.03 468.17 C 773.05 466.36, 775.96 464.90, 782.18 461.56 C 788.39 458.22, 792.09 455.88, 799.11 451.48 C 806.14 447.07, 810.03 444.27, 817.29 439.53 C 824.55 434.79, 828.57 432.05, 835.41 427.79 C 842.25 423.53, 845.86 421.40, 851.49 418.24 C 857.12 415.08, 859.77 413.94, 863.56 411.99 C 867.35 410.05, 868.93 409.68, 870.44 408.51 C 871.94 407.34, 871.73 406.68, 871.09 406.15 C 870.45 405.62, 869.30 405.24, 867.25 405.86 C 865.21 406.47, 863.85 407.30, 860.87 409.22 C 857.89 411.14, 856.05 412.66, 852.36 415.45 C 848.67 418.23, 846.39 419.90, 842.42 423.14 C 838.44 426.38, 836.15 428.23, 832.47 431.64 C 828.79 435.05, 826.85 436.93, 824.01 440.17 C 821.18 443.42, 819.56 444.98, 818.30 447.89 C 817.03 450.79, 816.95 452.44, 817.69 454.70 C 818.43 456.95, 819.54 458.34, 822.01 459.16 C 824.49 459.97, 826.39 459.87, 830.06 458.78 C 833.73 457.69, 835.76 456.30, 840.36 453.72 C 844.97 451.13, 847.87 449.34, 853.08 445.84 C 858.29 442.34, 861.27 440.03, 866.41 436.21 C 871.55 432.38, 874.39 430.12, 878.79 426.70 C 883.19 423.28, 885.72 421.48, 888.42 419.09 C 891.11 416.71, 891.91 415.48, 892.25 414.76 C 892.60 414.04, 891.41 413.73, 890.13 415.49 C 888.84 417.25, 888.06 419.16, 885.83 423.57 C 883.60 427.99, 882.15 431.24, 878.97 437.56 C 875.79 443.89, 873.76 447.76, 869.92 455.19 C 866.09 462.61, 863.92 466.72, 859.80 474.71 C 855.68 482.70, 853.56 486.95, 849.33 495.14 C 845.10 503.33, 842.92 507.77, 838.66 515.64 C 834.39 523.52, 832.24 527.58, 827.98 534.51 C 823.73 541.43, 821.56 544.71, 817.38 550.28 C 813.20 555.86, 811.00 558.42, 807.09 562.37 C 803.17 566.32, 801.14 568.02, 797.81 570.06 C 794.48 572.09, 792.82 572.33, 790.45 572.54 C 788.07 572.76, 787.31 572.51, 785.93 571.13 C 784.55 569.74, 783.98 568.80, 783.54 565.62 C 783.10 562.44, 782.77 560.05, 783.72 555.22 C 784.68 550.38, 785.46 547.36, 788.32 541.44 C 791.18 535.53, 793.19 532.16, 798.02 525.65 C 802.86 519.14, 805.92 515.61, 812.50 508.87 C 819.08 502.14, 823.04 498.68, 830.94 491.98 C 838.84 485.29, 843.29 481.76, 852.00 475.41 C 860.71 469.06, 865.59 465.94, 874.49 460.23 C 883.39 454.52, 888.13 451.76, 896.50 446.87 C 904.88 441.97, 909.14 439.56, 916.38 435.74 C 923.62 431.93, 927.41 429.99, 932.70 427.79 C 937.98 425.58, 940.35 425.31, 942.79 424.72 C 945.24 424.13, 945.10 423.77, 944.93 424.84 C 944.75 425.92, 943.73 427.07, 941.91 430.09 C 940.10 433.12, 938.53 435.81, 935.85 439.97 C 933.17 444.12, 931.28 446.90, 928.51 450.87 C 925.74 454.84, 923.63 456.74, 922.02 459.83 C 920.40 462.91, 919.86 464.60, 920.43 466.31 C 921.00 468.02, 922.33 469.04, 924.87 468.37 C 927.41 467.70, 928.90 465.94, 933.13 462.97 C 937.36 460.00, 940.25 457.61, 946.01 453.51 C 951.78 449.41, 955.63 446.64, 961.94 442.46 C 968.25 438.28, 971.81 435.81, 977.56 432.60 C 983.30 429.40, 986.32 428.01, 990.66 426.44 C 995.00 424.87, 997.07 424.92, 999.26 424.77 C 1001.45 424.63, 1001.54 424.56, 1001.59 425.71 C 1001.65 426.87, 1000.81 427.90, 999.54 430.55 C 998.27 433.19, 997.26 435.36, 995.24 438.93 C 993.23 442.51, 991.50 444.85, 989.47 448.42 C 987.43 452.00, 985.63 453.96, 985.07 456.80 C 984.51 459.63, 985.08 461.25, 986.65 462.59 C 988.22 463.93, 989.74 464.39, 992.93 463.48 C 996.11 462.58, 997.94 460.82, 1002.56 458.06 C 1007.18 455.30, 1010.23 453.15, 1016.03 449.70 C 1021.83 446.25, 1025.42 443.98, 1031.57 440.81 C 1037.72 437.63, 1041.43 435.76, 1046.77 433.83 C 1052.11 431.90, 1054.92 431.50, 1058.29 431.16 C 1061.66 430.83, 1062.57 431.10, 1063.61 432.15 C 1064.66 433.21, 1064.00 434.03, 1063.51 436.44 C 1063.02 438.85, 1062.27 440.79, 1061.16 444.20 C 1060.04 447.61, 1058.78 449.79, 1057.94 453.48 C 1057.10 457.17, 1056.27 459.44, 1056.94 462.65 C 1057.62 465.86, 1058.69 467.83, 1061.32 469.55 C 1063.95 471.27, 1065.79 471.51, 1070.10 471.23 C 1074.41 470.95, 1077.09 470.08, 1082.87 468.15 C 1088.65 466.21, 1092.12 464.63, 1098.99 461.55 C 1105.87 458.47, 1109.76 456.35, 1117.24 452.73 C 1124.72 449.11, 1129.04 447.01, 1136.39 443.45 C 1143.74 439.89, 1147.61 437.95, 1154.00 434.92 C 1160.39 431.90, 1163.47 430.42, 1168.34 428.33 C 1173.21 426.23, 1175.40 425.76, 1178.33 424.43 C 1181.27 423.11, 1182.04 422.72, 1182.99 421.71 C 1183.95 420.71, 1183.87 420.16, 1183.12 419.41 C 1182.37 418.66, 1181.50 417.66, 1179.24 417.97 C 1176.98 418.28, 1175.28 419.19, 1171.81 420.95 C 1168.34 422.72, 1166.32 424.07, 1161.91 426.81 C 1157.49 429.56, 1154.72 431.24, 1149.75 434.68 C 1144.77 438.11, 1141.71 440.11, 1137.04 443.98 C 1132.36 447.86, 1130.07 450.26, 1126.38 454.06 C 1122.69 457.86, 1120.78 459.66, 1118.58 463.00 C 1116.38 466.33, 1115.45 467.99, 1115.38 470.74 C 1115.31 473.49, 1116.26 475.16, 1118.23 476.76 C 1120.21 478.36, 1121.91 479.01, 1125.25 478.75 C 1128.60 478.49, 1130.77 477.44, 1134.96 475.46 C 1139.14 473.48, 1141.44 472.01, 1146.19 468.84 C 1150.94 465.67, 1153.63 463.54, 1158.72 459.62 C 1163.82 455.70, 1166.65 453.35, 1171.66 449.24 C 1176.67 445.12, 1179.44 442.71, 1183.75 439.04 C 1188.06 435.36, 1190.90 433.49, 1193.22 430.85 C 1195.54 428.22, 1195.88 426.74, 1195.36 425.84 C 1194.84 424.95, 1192.97 424.76, 1190.63 426.38 C 1188.28 428.00, 1186.52 430.29, 1183.64 433.94 C 1180.75 437.58, 1178.62 440.39, 1176.20 444.61 C 1173.79 448.83, 1172.32 451.24, 1171.58 455.03 C 1170.85 458.82, 1170.99 460.97, 1172.53 463.56 C 1174.06 466.15, 1175.79 467.36, 1179.27 467.98 C 1182.75 468.60, 1184.98 467.95, 1189.92 466.66 C 1194.86 465.37, 1197.91 464.19, 1203.96 461.54 C 1210.02 458.88, 1213.60 456.83, 1220.19 453.39 C 1226.78 449.95, 1230.47 447.76, 1236.90 444.36 C 1243.33 440.97, 1247.13 438.84, 1252.33 436.41 C 1257.52 433.99, 1260.18 433.23, 1262.87 432.24 C 1265.56 431.24, 1265.81 430.87, 1265.78 431.45 C 1265.75 432.02, 1264.73 432.66, 1262.71 435.10 C 1260.70 437.55, 1258.87 439.98, 1255.70 443.68 C 1252.52 447.37, 1250.02 449.88, 1246.82 453.58 C 1243.63 457.28, 1240.99 459.12, 1239.72 462.16 C 1238.45 465.21, 1238.73 467.43, 1240.47 468.81 C 1242.20 470.18, 1244.02 470.12, 1248.39 469.04 C 1252.76 467.97, 1255.72 466.17, 1262.31 463.43 C 1268.90 460.68, 1273.43 458.52, 1281.35 455.34 C 1289.27 452.16, 1293.99 450.11, 1301.89 447.52 C 1309.80 444.93, 1314.20 443.62, 1320.86 442.39 C 1327.52 441.15, 1330.80 440.97, 1335.18 441.34 C 1339.56 441.70, 1340.87 442.63, 1342.78 444.20 C 1344.68 445.77, 1344.62 446.61, 1344.70 449.18 C 1344.77 451.75, 1344.05 453.49, 1343.15 457.05 C 1342.25 460.61, 1341.13 463.06, 1340.18 466.99 C 1339.22 470.92, 1338.58 473.19, 1338.37 476.69 C 1338.15 480.20, 1338.44 482.14, 1339.10 484.53 C 1339.76 486.91, 1340.76 487.90, 1341.67 488.61 C 1342.57 489.32, 1343.16 489.01, 1343.61 488.08 C 1344.06 487.14, 1343.83 486.13, 1343.93 483.94 C 1344.03 481.75, 1343.83 480.29, 1344.13 477.15 C 1344.44 474.00, 1344.64 471.99, 1345.46 468.20 C 1346.28 464.41, 1347.45 462.09, 1348.22 458.19 C 1348.99 454.28, 1349.92 452.07, 1349.31 448.66 C 1348.71 445.24, 1347.97 443.22, 1345.19 441.12 C 1342.40 439.02, 1340.37 438.42, 1335.40 438.15 C 1330.43 437.87, 1327.21 438.35, 1320.35 439.75 C 1313.49 441.14, 1309.11 442.52, 1301.11 445.12 C 1293.11 447.72, 1288.36 449.73, 1280.35 452.76 C 1272.34 455.80, 1267.68 457.80, 1261.07 460.28 C 1254.45 462.76, 1251.14 463.85, 1247.26 465.16 C 1243.39 466.46, 1242.33 466.90, 1241.68 466.82 C 1241.02 466.74, 1242.17 466.74, 1243.97 464.76 C 1245.77 462.78, 1247.55 460.48, 1250.67 456.93 C 1253.79 453.37, 1256.32 450.81, 1259.57 446.98 C 1262.81 443.16, 1265.26 441.06, 1266.91 437.79 C 1268.55 434.52, 1268.79 432.53, 1267.79 430.65 C 1266.78 428.77, 1265.27 427.81, 1261.88 428.38 C 1258.50 428.94, 1256.15 430.77, 1250.88 433.46 C 1245.61 436.15, 1241.95 438.36, 1235.55 441.82 C 1229.14 445.28, 1225.43 447.46, 1218.85 450.77 C 1212.26 454.08, 1208.62 456.00, 1202.64 458.36 C 1196.66 460.73, 1193.49 461.62, 1188.95 462.59 C 1184.41 463.56, 1182.49 463.41, 1179.92 463.20 C 1177.35 463.00, 1176.80 462.95, 1176.10 461.56 C 1175.40 460.17, 1175.51 459.10, 1176.44 456.25 C 1177.37 453.40, 1178.45 451.08, 1180.76 447.30 C 1183.07 443.53, 1185.26 440.84, 1187.99 437.37 C 1190.72 433.89, 1193.01 432.29, 1194.41 429.93 C 1195.80 427.57, 1195.81 426.01, 1194.97 425.56 C 1194.13 425.11, 1192.93 425.53, 1190.21 427.69 C 1187.49 429.86, 1185.50 432.55, 1181.38 436.37 C 1177.26 440.18, 1174.55 442.66, 1169.62 446.78 C 1164.69 450.90, 1161.82 453.20, 1156.72 456.96 C 1151.62 460.71, 1148.85 462.74, 1144.12 465.54 C 1139.38 468.35, 1136.97 469.50, 1133.05 470.99 C 1129.12 472.47, 1127.03 472.43, 1124.48 472.95 C 1121.94 473.47, 1121.32 473.94, 1120.34 473.58 C 1119.36 473.22, 1119.20 472.80, 1119.57 471.16 C 1119.95 469.52, 1120.32 468.29, 1122.22 465.38 C 1124.12 462.46, 1125.65 460.33, 1129.06 456.58 C 1132.46 452.84, 1134.71 450.42, 1139.25 446.65 C 1143.80 442.88, 1146.82 440.92, 1151.78 437.73 C 1156.75 434.55, 1159.56 432.94, 1164.08 430.72 C 1168.60 428.50, 1170.90 427.99, 1174.37 426.63 C 1177.84 425.27, 1179.61 425.12, 1181.43 423.93 C 1183.25 422.73, 1183.37 421.65, 1183.47 420.66 C 1183.56 419.68, 1183.28 419.07, 1181.90 419.01 C 1180.51 418.95, 1179.53 419.09, 1176.55 420.38 C 1173.56 421.66, 1171.72 423.01, 1166.98 425.44 C 1162.24 427.87, 1159.17 429.38, 1152.84 432.54 C 1146.51 435.70, 1142.65 437.65, 1135.31 441.23 C 1127.97 444.81, 1123.64 446.90, 1116.14 450.43 C 1108.65 453.95, 1104.70 455.99, 1097.82 458.84 C 1090.95 461.69, 1087.39 463.08, 1081.79 464.66 C 1076.19 466.23, 1073.42 466.53, 1069.83 466.73 C 1066.23 466.94, 1065.31 466.64, 1063.84 465.69 C 1062.37 464.73, 1062.50 464.09, 1062.49 461.94 C 1062.48 459.79, 1062.93 458.14, 1063.80 454.93 C 1064.66 451.72, 1065.80 449.54, 1066.81 445.91 C 1067.82 442.27, 1069.00 440.03, 1068.85 436.75 C 1068.69 433.48, 1068.19 431.41, 1066.02 429.52 C 1063.85 427.63, 1062.07 427.06, 1057.99 427.30 C 1053.91 427.54, 1051.18 428.57, 1045.61 430.71 C 1040.04 432.85, 1036.40 434.81, 1030.13 438.00 C 1023.87 441.19, 1020.23 443.40, 1014.29 446.65 C 1008.35 449.89, 1005.09 451.84, 1000.44 454.23 C 995.78 456.61, 993.50 457.27, 991.01 458.57 C 988.53 459.88, 988.19 460.71, 988.01 460.76 C 987.84 460.80, 988.86 460.68, 990.15 458.79 C 991.44 456.90, 992.45 454.73, 994.46 451.31 C 996.47 447.88, 998.12 445.45, 1000.19 441.68 C 1002.26 437.91, 1003.88 435.86, 1004.80 432.46 C 1005.73 429.05, 1005.90 427.01, 1004.82 424.66 C 1003.73 422.31, 1002.46 421.00, 999.38 420.71 C 996.30 420.41, 994.08 421.33, 989.42 423.19 C 984.76 425.05, 981.91 426.66, 976.09 430.02 C 970.27 433.37, 966.73 435.85, 960.32 439.97 C 953.90 444.09, 949.96 446.72, 944.03 450.60 C 938.10 454.48, 934.89 456.58, 930.67 459.36 C 926.45 462.14, 924.58 463.08, 922.94 464.50 C 921.31 465.91, 921.79 466.81, 922.49 466.44 C 923.19 466.06, 924.45 465.22, 926.44 462.64 C 928.43 460.07, 929.73 457.57, 932.44 453.57 C 935.15 449.57, 937.22 446.91, 940.00 442.66 C 942.78 438.40, 944.82 435.96, 946.33 432.29 C 947.84 428.63, 948.37 426.58, 947.57 424.34 C 946.76 422.09, 945.51 420.90, 942.30 421.07 C 939.10 421.24, 936.94 422.65, 931.54 425.20 C 926.15 427.74, 922.53 429.79, 915.32 433.80 C 908.12 437.80, 903.89 440.23, 895.53 445.21 C 887.16 450.19, 882.42 452.96, 873.50 458.70 C 864.58 464.44, 859.69 467.57, 850.93 473.93 C 842.17 480.29, 837.69 483.82, 829.69 490.50 C 821.70 497.19, 817.70 500.64, 810.97 507.36 C 804.23 514.08, 801.10 517.59, 796.02 524.13 C 790.94 530.66, 788.78 533.99, 785.55 540.03 C 782.33 546.08, 781.23 549.09, 779.88 554.34 C 778.54 559.59, 778.27 562.25, 778.84 566.28 C 779.42 570.31, 780.38 572.35, 782.77 574.50 C 785.17 576.65, 787.41 577.32, 790.82 577.05 C 794.23 576.78, 796.14 575.68, 799.82 573.15 C 803.51 570.62, 805.33 568.70, 809.24 564.42 C 813.16 560.15, 815.27 557.52, 819.40 551.77 C 823.54 546.02, 825.69 542.70, 829.91 535.68 C 834.14 528.66, 836.27 524.57, 840.53 516.66 C 844.79 508.74, 846.96 504.30, 851.21 496.11 C 855.46 487.93, 857.60 483.69, 861.80 475.75 C 866.00 467.81, 868.18 463.72, 872.21 456.40 C 876.24 449.08, 878.44 445.31, 881.93 439.15 C 885.43 432.99, 887.27 430.02, 889.69 425.60 C 892.11 421.18, 893.59 419.58, 894.02 417.05 C 894.45 414.51, 893.53 413.21, 891.86 412.93 C 890.18 412.65, 888.73 413.45, 885.67 415.64 C 882.61 417.84, 880.79 420.34, 876.54 423.92 C 872.29 427.50, 869.51 429.76, 864.42 433.54 C 859.34 437.32, 856.34 439.56, 851.12 442.82 C 845.91 446.07, 842.88 447.68, 838.35 449.81 C 833.81 451.95, 831.55 452.51, 828.45 453.48 C 825.35 454.45, 824.30 454.57, 822.85 454.66 C 821.40 454.75, 821.15 454.80, 821.21 453.93 C 821.27 453.05, 821.88 452.47, 823.14 450.29 C 824.40 448.12, 825.07 446.18, 827.50 443.05 C 829.93 439.92, 831.78 437.96, 835.29 434.65 C 838.79 431.34, 841.06 429.49, 845.04 426.48 C 849.02 423.48, 851.32 421.94, 855.18 419.61 C 859.04 417.29, 861.32 416.65, 864.35 414.86 C 867.38 413.06, 868.86 412.31, 870.34 410.65 C 871.82 409.00, 872.03 407.66, 871.75 406.59 C 871.48 405.52, 870.95 404.87, 868.96 405.31 C 866.98 405.74, 865.61 406.67, 861.83 408.77 C 858.06 410.88, 855.62 412.45, 850.08 415.84 C 844.54 419.23, 840.93 421.39, 834.11 425.72 C 827.29 430.06, 823.26 432.81, 815.99 437.52 C 808.71 442.22, 804.79 445.00, 797.74 449.24 C 790.69 453.49, 786.93 455.73, 780.74 458.75 C 774.55 461.78, 771.51 462.98, 766.78 464.37 C 762.06 465.75, 759.99 465.65, 757.12 465.68 C 754.24 465.71, 753.47 465.62, 752.42 464.51 C 751.36 463.40, 751.71 462.53, 751.85 460.13 C 752.00 457.73, 752.20 455.92, 753.14 452.50 C 754.08 449.09, 755.30 446.85, 756.55 443.04 C 757.80 439.23, 759.06 436.96, 759.40 433.47 C 759.74 429.97, 759.62 427.93, 758.24 425.54 C 756.85 423.16, 755.62 421.88, 752.46 421.54 C 749.30 421.21, 747.20 422.10, 742.42 423.86 C 737.65 425.63, 734.53 427.15, 728.58 430.39 C 722.64 433.63, 718.97 436.04, 712.69 440.07 C 706.41 444.10, 702.90 446.55, 697.18 450.54 C 691.47 454.53, 688.31 456.97, 684.11 460.01 C 679.90 463.05, 677.85 464.08, 676.16 465.73 C 674.46 467.38, 674.95 468.52, 675.63 468.24 C 676.30 467.96, 677.38 467.00, 679.53 464.31 C 681.69 461.63, 683.39 459.07, 686.39 454.81 C 689.40 450.56, 691.73 447.76, 694.57 443.03 C 697.41 438.30, 698.99 435.67, 700.61 431.17 C 702.22 426.67, 703.19 424.27, 702.63 420.53 C 702.08 416.78, 700.96 414.82, 697.83 412.45 C 694.69 410.09, 691.95 409.52, 686.97 408.71 C 681.99 407.89, 679.01 408.15, 672.94 408.36 C 666.87 408.57, 663.30 409.04, 656.61 409.75 C 649.92 410.46, 645.92 411.16, 639.50 411.91 C 633.07 412.67, 629.73 413.25, 624.50 413.53 C 619.26 413.81, 616.87 413.32, 613.32 413.31 C 609.77 413.30, 608.53 412.90, 606.77 413.46 C 605.02 414.02, 604.74 414.93, 604.54 416.12 C 604.34 417.30, 604.85 418.09, 605.79 419.41 C 606.73 420.73, 607.87 421.01, 609.23 422.72 C 610.60 424.43, 611.79 425.32, 612.61 427.97 C 613.42 430.61, 613.87 432.31, 613.30 435.92 C 612.72 439.54, 611.92 441.75, 609.72 446.03 C 607.52 450.31, 605.79 453.01, 602.29 457.31 C 598.80 461.61, 596.56 463.93, 592.26 467.53 C 587.95 471.14, 585.28 472.90, 580.77 475.35 C 576.27 477.81, 573.65 478.76, 569.74 479.81 C 565.83 480.86, 563.85 480.81, 561.22 480.60 C 558.59 480.38, 557.68 480.21, 556.59 478.73 C 555.50 477.26, 555.24 476.29, 555.78 473.24 C 556.32 470.19, 556.86 467.87, 559.31 463.50 C 561.75 459.13, 563.89 456.26, 568.00 451.39 C 572.12 446.52, 575.14 443.54, 579.90 439.14 C 584.66 434.74, 587.58 432.47, 591.82 429.39 C 596.06 426.31, 598.62 425.75, 601.09 423.76 C 603.56 421.77, 603.97 420.77, 604.18 419.43 C 604.39 418.10, 603.54 417.60, 602.13 417.09 C 600.71 416.58, 599.62 416.54, 597.10 416.90 C 594.58 417.25, 592.88 418.09, 589.52 418.85 C 586.15 419.61, 584.11 420.08, 580.28 420.71 C 576.46 421.35, 574.35 421.68, 570.39 422.03 C 566.44 422.37, 564.33 422.35, 560.52 422.45 C 556.71 422.54, 554.90 422.28, 551.34 422.51 C 547.79 422.73, 546.14 422.84, 542.74 423.56 C 539.34 424.28, 537.72 424.61, 534.33 426.10 C 530.94 427.59, 529.28 428.46, 525.79 431.01 C 522.30 433.55, 520.55 435.27, 516.88 438.84 C 513.20 442.41, 511.27 444.52, 507.44 448.84 C 503.61 453.16, 501.48 455.88, 497.73 460.44 C 493.97 464.99, 491.92 467.70, 488.66 471.62 C 485.40 475.54, 483.50 477.29, 481.42 480.03 C 479.34 482.76, 478.71 483.97, 478.24 485.31 C 477.77 486.64, 478.38 487.18, 479.09 486.70 C 479.80 486.22, 480.72 485.45, 481.80 482.90 C 482.87 480.35, 483.10 478.04, 484.46 473.95 C 485.81 469.87, 487.05 467.24, 488.58 462.48 C 490.12 457.71, 490.91 454.92, 492.14 450.14 C 493.37 445.36, 494.08 442.82, 494.72 438.58 C 495.37 434.35, 495.87 432.27, 495.35 428.97 C 494.83 425.66, 493.87 424.15, 492.12 422.04 C 490.37 419.94, 489.01 419.04, 486.60 418.46 C 484.18 417.87, 482.65 418.09, 480.06 419.10 C 477.46 420.11, 476.29 421.14, 473.62 423.51 C 470.95 425.87, 469.67 427.50, 466.70 430.94 C 463.74 434.37, 462.24 436.58, 458.80 440.70 C 455.36 444.82, 453.35 447.13, 449.49 451.53 C 445.64 455.92, 443.37 458.52, 439.54 462.69 C 435.71 466.86, 433.68 469.09, 430.35 472.38 C 427.02 475.68, 425.02 476.95, 422.89 479.15 C 420.75 481.35, 420.32 482.65, 419.68 483.36 C 419.03 484.08, 419.28 484.27, 419.68 482.73 C 420.07 481.19, 420.14 479.93, 421.66 475.65 C 423.17 471.36, 424.23 468.18, 427.24 461.30 C 430.25 454.42, 432.33 449.99, 436.69 441.25 C 441.05 432.52, 443.84 427.34, 449.03 417.62 C 454.23 407.89, 457.35 402.21, 462.67 392.65 C 468.00 383.09, 471.07 377.90, 475.67 369.80 C 480.27 361.70, 482.88 357.78, 485.68 352.13 C 488.48 346.49, 489.94 344.16, 489.69 341.58 C 489.44 338.99, 487.72 338.14, 484.43 339.20 C 481.14 340.27, 478.97 342.66, 473.25 346.92 C 467.53 351.17, 463.73 354.39, 455.82 360.49 C 447.92 366.59, 443.12 370.13, 433.72 377.43 C 424.31 384.73, 419.06 388.83, 408.79 397.01 C 398.51 405.19, 392.99 409.69, 382.34 418.34 C 371.69 426.98, 365.92 431.44, 355.54 440.24 C 345.15 449.04, 339.78 453.72, 330.42 462.33 C 321.07 470.94, 316.41 475.46, 308.76 483.29 C 301.11 491.12, 297.47 494.93, 292.18 501.48 C 286.88 508.03, 284.54 511.04, 282.29 516.03 C 280.04 521.03, 279.51 523.58, 280.93 526.46 C 282.36 529.34, 284.65 530.12, 289.40 530.42 C 294.16 530.73, 297.49 529.90, 304.71 527.98 C 311.93 526.07, 316.66 524.42, 325.51 520.86 C 334.36 517.30, 339.76 514.82, 348.97 510.18 C 358.18 505.55, 363.36 502.72, 371.56 497.69 C 379.76 492.66, 383.92 490.01, 389.97 485.05 C 396.01 480.08, 398.67 477.64, 401.79 472.86 C 404.91 468.09, 405.78 465.67, 405.56 461.19 C 405.34 456.70, 403.95 454.43, 400.70 450.44 C 397.45 446.44, 394.67 444.68, 389.31 441.21 C 383.94 437.75, 380.25 436.34, 373.86 433.14 C 367.48 429.93, 363.69 428.50, 357.38 425.20 C 351.06 421.89, 347.55 420.24, 342.28 416.61 C 337.02 412.98, 334.33 411.12, 331.05 407.04 C 327.76 402.96, 326.63 400.89, 325.87 396.21 C 325.10 391.52, 325.28 388.98, 327.20 383.61 C 329.13 378.23, 331.07 375.05, 335.49 369.35 C 339.91 363.66, 343.26 360.54, 349.30 355.13 C 355.35 349.71, 359.21 346.75, 365.72 342.29 C 372.23 337.82, 375.92 335.77, 381.85 332.80 C 387.79 329.84, 390.64 328.69, 395.38 327.47 C 400.13 326.24, 402.19 326.65, 405.59 326.68 C 408.98 326.72, 410.16 327.40, 412.37 327.64 C 414.57 327.88, 415.55 328.33, 416.62 327.88 C 417.69 327.44, 418.30 326.58, 417.71 325.40"></path>
  </symbol>
</svg>